Coordinates
version=1
nRows=29
nColumns=24
inDegrees=yes

Units are S.I. units (second, meters, Newtons, ...)
Angles are in degrees.

endheader
time	pelvis_tilt	pelvis_list	pelvis_rotation	pelvis_tx	pelvis_ty	pelvis_tz	hip_flexion_r	hip_adduction_r	hip_rotation_r	knee_angle_r	ankle_angle_r	subtalar_angle_r	mtp_angle_r	hip_flexion_l	hip_adduction_l	hip_rotation_l	knee_angle_l	ankle_angle_l	subtalar_angle_l	mtp_angle_l	lumbar_extension	lumbar_bending	lumbar_rotation
     10.00000000	     63.42711120	      3.06024128	     -1.60877925	      0.56111627	      1.05813917	     -0.31135681	      3.94867656	    -11.82905044	      5.52634358	    -60.93432234	    -19.05230555	     -2.15893307	      0.00000000	      4.75594533	     -7.82979817	      1.06028731	    -67.11108634	     -6.10252583	     25.45235148	      0.00000000	      0.00000000	      0.00000000	      0.00000000
     10.01000000	     63.43199649	      3.06488154	     -1.61131292	      0.56110661	      1.05815349	     -0.31136365	      3.94266262	    -11.83713504	      5.52408747	    -60.92216396	    -19.08395434	     -2.17907717	      0.00000000	      4.73946188	     -7.80351622	      1.04149465	    -66.89908460	     -6.09798329	     25.43568042	      0.00000000	      0.00000000	      0.00000000	      0.00000000
     10.02000000	     63.43632673	      3.06991772	     -1.61432086	      0.56110285	      1.05817324	     -0.31136711	      3.93716647	    -11.84545070	      5.52170048	    -60.91023695	    -19.11311841	     -2.19727920	      0.00000000	      4.72366729	     -7.77714853	      1.02077892	    -66.67846280	     -6.09267381	     25.41767782	      0.00000000	      0.00000000	      0.00000000	      0.00000000
     10.03000000	     63.43998182	      3.07477671	     -1.61707030	      0.56109245	      1.05819180	     -0.31136705	      3.93210959	    -11.85295834	      5.51998033	    -60.90046004	    -19.13498909	     -2.21074254	      0.00000000	      4.70995962	     -7.75268299	      0.99779800	    -66.44691119	     -6.08823620	     25.39784209	      0.00000000	      0.00000000	      0.00000000	      0.00000000
     10.04000000	     63.44325958	      3.07878907	     -1.61888185	      0.56107293	      1.05820359	     -0.31136463	      3.92742993	    -11.85865170	      5.51988742	    -60.89460971	    -19.14524918	     -2.21691016	      0.00000000	      4.69922283	     -7.73124448	      0.97254064	    -66.20250834	     -6.08564574	     25.37629645	      0.00000000	      0.00000000	      0.00000000	      0.00000000
     10.05000000	     63.44624042	      3.08154446	     -1.61940092	      0.56105580	      1.05820967	     -0.31135963	      3.92325383	    -11.86175289	      5.52225455	    -60.89358224	    -19.14122448	     -2.21410901	      0.00000000	      4.69100049	     -7.71285264	      0.94556409	    -65.94557252	     -6.08497189	     25.35368509	      0.00000000	      0.00000000	      0.00000000	      0.00000000
     10.06000000	     63.44807678	      3.08307485	     -1.61864998	      0.56105277	      1.05821407	     -0.31135151	      3.91975766	    -11.86191289	      5.52746366	    -60.89698627	    -19.12275169	     -2.20202398	      0.00000000	      4.68329587	     -7.69658147	      0.91779730	    -65.67941419	     -6.08573574	     25.33094147	      0.00000000	      0.00000000	      0.00000000	      0.00000000
     10.07000000	     63.44722724	      3.08375335	     -1.61701105	      0.56105292	      1.05822067	     -0.31134349	      3.91667816	    -11.85944951	      5.53524330	    -60.90341468	    -19.09246342	     -2.18186770	      0.00000000	      4.67378217	     -7.68110905	      0.89004066	    -65.40917365	     -6.08764455	     25.30903993	      0.00000000	      0.00000000	      0.00000000	      0.00000000
     10.08000000	     63.44339269	      3.08398099	     -1.61503326	      0.56103658	      1.05823168	     -0.31133990	      3.91347231	    -11.85538425	      5.54461516	    -60.91082432	    -19.05531755	     -2.15621837	      0.00000000	      4.66180526	     -7.66523761	      0.86244759	    -65.13923044	     -6.09102697	     25.28870085	      0.00000000	      0.00000000	      0.00000000	      0.00000000
     10.09000000	     63.43917744	      3.08399738	     -1.61323882	      0.56101225	      1.05824653	     -0.31133823	      3.90999228	    -11.85116689	      5.55408194	    -60.91690288	    -19.01742609	     -2.12857534	      0.00000000	      4.64935563	     -7.64818527	      0.83444136	    -64.87099231	     -6.09642436	     25.27001047	      0.00000000	      0.00000000	      0.00000000	      0.00000000
     10.10000000	     63.43800399	      3.08417049	     -1.61234309	      0.56099677	      1.05826300	     -0.31133311	      3.90618077	    -11.84838823	      5.56219699	    -60.92010926	    -18.98452908	     -2.10271675	      0.00000000	      4.63937204	     -7.62992706	      0.80544576	    -64.60307934	     -6.10348646	     25.25208983	      0.00000000	      0.00000000	      0.00000000	      0.00000000
     10.11000000	     63.44086972	      3.08522101	     -1.61328280	      0.56098711	      1.05827884	     -0.31132774	      3.90184835	    -11.84839305	      5.56813758	    -60.92037163	    -18.96064440	     -2.08197734	      0.00000000	      4.63277358	     -7.61108420	      0.77562917	    -64.33350843	     -6.10997459	     25.23310617	      0.00000000	      0.00000000	      0.00000000	      0.00000000
     10.12000000	     63.44588880	      3.08768263	     -1.61644654	      0.56097575	      1.05829084	     -0.31133170	      3.89739755	    -11.85168932	      5.57181844	    -60.91855449	    -18.94736565	     -2.06861348	      0.00000000	      4.62717495	     -7.59193308	      0.74557232	    -64.06176619	     -6.11178084	     25.21081733	      0.00000000	      0.00000000	      0.00000000	      0.00000000
     10.13000000	     63.44999861	      3.09126281	     -1.62097365	      0.56096204	      1.05829486	     -0.31134702	      3.89394613	    -11.85758650	      5.57359634	    -60.91565560	    -18.94398683	     -2.06342390	      0.00000000	      4.61842568	     -7.57165815	      0.71531658	    -63.78939951	     -6.10435972	     25.18352563	      0.00000000	      0.00000000	      0.00000000	      0.00000000
     10.14000000	     63.45140179	      3.09499030	     -1.62517540	      0.56095129	      1.05829384	     -0.31136259	      3.89235227	    -11.86447512	      5.57391060	    -60.91248260	    -18.94826752	     -2.06572113	      0.00000000	      4.60404507	     -7.54900680	      0.68415942	    -63.51892489	     -6.08510522	     25.15107583	      0.00000000	      0.00000000	      0.00000000	      0.00000000
     10.15000000	     63.45070577	      3.09813359	     -1.62772375	      0.56094749	      1.05829970	     -0.31136847	      3.89225946	    -11.87063393	      5.57314754	    -60.90963804	    -18.95742841	     -2.07363492	      0.00000000	      4.58530892	     -7.52399706	      0.65175676	    -63.25246804	     -6.05543826	     25.11546938	      0.00000000	      0.00000000	      0.00000000	      0.00000000
     10.16000000	     63.44975426	      3.10064949	     -1.62824217	      0.56094516	      1.05831839	     -0.31136770	      3.89216915	    -11.87495688	      5.57170586	    -60.90737605	    -18.96898216	     -2.08461762	      0.00000000	      4.56592308	     -7.49874012	      0.61938347	    -62.99152562	     -6.02122093	     25.08070319	      0.00000000	      0.00000000	      0.00000000	      0.00000000
     10.17000000	     63.44998943	      3.10250672	     -1.62692253	      0.56093845	      1.05834025	     -0.31136684	      3.89040292	    -11.87705941	      5.56999709	    -60.90525821	    -18.98118302	     -2.09597451	      0.00000000	      4.54923622	     -7.47623654	      0.58997243	    -62.73745945	     -5.99090103	     25.05164395	      0.00000000	      0.00000000	      0.00000000	      0.00000000
     10.18000000	     63.45174811	      3.10322550	     -1.62418981	      0.56092748	      1.05835206	     -0.31136589	      3.88587344	    -11.87687782	      5.56827710	    -60.90207265	    -18.99305289	     -2.10529971	      0.00000000	      4.53658457	     -7.45856210	      0.56703927	    -62.49178893	     -5.97205304	     25.03221138	      0.00000000	      0.00000000	      0.00000000	      0.00000000
     10.19000000	     63.45469977	      3.10237816	     -1.62092333	      0.56091284	      1.05835799	     -0.31136189	      3.87818005	    -11.87442389	      5.56652736	    -60.89634642	    -19.00405475	     -2.11080015	      0.00000000	      4.52750909	     -7.44599596	      0.55323602	    -62.25582172	     -5.96785878	     25.02364047	      0.00000000	      0.00000000	      0.00000000	      0.00000000
     10.20000000	     63.45878443	      3.10014203	     -1.61847662	      0.56089950	      1.05837793	     -0.31135491	      3.86759782	    -11.87010954	      5.56463622	    -60.88720071	    -19.01358742	     -2.11152715	      0.00000000	      4.52060864	     -7.43689105	      0.54891604	    -62.03002592	     -5.97520737	     25.02375217	      0.00000000	      0.00000000	      0.00000000	      0.00000000
     10.21000000	     63.46404963	      3.09735393	     -1.61804682	      0.56089302	      1.05841564	     -0.31134773	      3.85524588	    -11.86547338	      5.56289636	    -60.87517565	    -19.02056045	     -2.10750139	      0.00000000	      4.51325023	     -7.42771057	      0.55120143	    -61.81428243	     -5.98550844	     25.02773210	      0.00000000	      0.00000000	      0.00000000	      0.00000000
     10.22000000	     63.47014794	      3.09547021	     -1.62028697	      0.56088782	      1.05844856	     -0.31134472	      3.84302025	    -11.86380424	      5.56255965	    -60.86280502	    -19.02328660	     -2.09969526	      0.00000000	      4.50131799	     -7.41341080	      0.55423445	    -61.60877814	     -5.98808132	     25.03005638	      0.00000000	      0.00000000	      0.00000000	      0.00000000
     10.23000000	     63.47729986	      3.09707849	     -1.62589755	      0.56087803	      1.05846153	     -0.31135622	      3.83297532	    -11.86997417	      5.56602994	    -60.85468874	    -19.01978850	     -2.08983641	      0.00000000	      4.48105595	     -7.38876334	      0.55085556	    -61.41409589	     -5.97458286	     25.02653141	      0.00000000	      0.00000000	      0.00000000	      0.00000000
     10.24000000	     63.48716315	      3.10693624	     -1.63631734	      0.56086667	      1.05846483	     -0.31139322	      3.82652697	    -11.88893980	      5.57630380	    -60.85659987	    -19.00844314	     -2.08000046	      0.00000000	      4.45130105	     -7.35064459	      0.53512163	    -61.23071940	     -5.94238353	     25.01543271	      0.00000000	      0.00000000	      0.00000000	      0.00000000
     10.25000000	     63.50205707	      3.13201802	     -1.65344426	      0.56085517	      1.05847098	     -0.31143790	      3.82411811	    -11.92318872	      5.59557386	    -60.87330829	    -18.98875687	     -2.07203301	      0.00000000	      4.41407327	     -7.30013278	      0.50452289	    -61.05892195	     -5.89548898	     24.99736276	      0.00000000	      0.00000000	      0.00000000	      0.00000000
     10.26000000	     63.52331279	      3.17843972	     -1.67845815	      0.56084557	      1.05846580	     -0.31141757	      3.82533901	    -11.97061615	      5.62359111	    -60.90575096	    -18.96199822	     -2.06698564	      0.00000000	      4.37394760	     -7.24283430	      0.46099146	    -60.89895607	     -5.84285686	     24.97420137	      0.00000000	      0.00000000	      0.00000000	      0.00000000
     10.27000000	     63.54955259	      3.24485258	     -1.71006397	      0.56085661	      1.05840679	     -0.31123740	      3.82913397	    -12.02459382	      5.65694027	    -60.94913246	    -18.93139918	     -2.06483418	      0.00000000	      4.33670455	     -7.18654366	      0.41018876	    -60.75127750	     -5.79505565	     24.94791733	      0.00000000	      0.00000000	      0.00000000	      0.00000000
     10.28000000	     63.57580583	      3.31702590	     -1.74313341	      0.56090408	      1.05827719	     -0.31090297	      3.83412912	    -12.07631681	      5.68991400	    -60.99352185	    -18.90170502	     -2.06464151	      0.00000000	      4.30750661	     -7.13765396	      0.35939847	    -60.61682626	     -5.76071777	     24.91985598	      0.00000000	      0.00000000	      0.00000000	      0.00000000
